<svg xmlns="http://www.w3.org/2000/svg" version="1.1" xmlns:xlink="http://www.w3.org/1999/xlink" xmlns:svgjs="http://svgjs.com/svgjs" width="16" height="16"><svg width="16" height="16" viewBox="0 0 16 16" fill="none" xmlns="http://www.w3.org/2000/svg">
<rect x="1" y="1" width="14" height="14" rx="4" fill="#131212"></rect>
<path d="M8.14973 4.30005C8.84618 4.30005 9.46932 4.38737 10.0191 4.56203C10.5763 4.7294 11.0675 4.9841 11.4927 5.32613L10.459 6.96348C10.1145 6.72334 9.75156 6.53049 9.37035 6.38495C8.99647 6.23941 8.58959 6.16663 8.14973 6.16663C7.95912 6.16663 7.80517 6.18119 7.68788 6.2103C7.57791 6.23941 7.49727 6.27943 7.44595 6.33037C7.40196 6.38131 7.37997 6.43953 7.37997 6.50502C7.37997 6.59235 7.44595 6.65784 7.57791 6.7015C7.7172 6.74517 7.88948 6.79247 8.09475 6.84341L9.09543 7.07264C9.83587 7.24001 10.393 7.48743 10.7669 7.81491C11.1481 8.14238 11.3387 8.5972 11.3387 9.17937C11.3387 9.76154 11.1958 10.2418 10.9099 10.6202C10.624 10.9914 10.2354 11.2679 9.74423 11.4498C9.26038 11.6318 8.71056 11.7227 8.09475 11.7227C7.63289 11.7227 7.17104 11.6827 6.70918 11.6027C6.24733 11.5153 5.81846 11.3916 5.42258 11.2315C5.02671 11.0641 4.68581 10.864 4.3999 10.6312L5.41159 8.96106C5.62419 9.12843 5.88077 9.28125 6.18135 9.41952C6.48192 9.5505 6.79349 9.65602 7.11605 9.73607C7.43862 9.81612 7.73919 9.85614 8.01777 9.85614C8.19372 9.85614 8.33301 9.84159 8.43564 9.81248C8.53828 9.78337 8.60792 9.74699 8.64458 9.70332C8.68856 9.65238 8.71055 9.59417 8.71055 9.52867C8.71055 9.42679 8.66657 9.35038 8.5786 9.29944C8.49796 9.2485 8.34767 9.19756 8.12774 9.14662L7.02808 8.90648C6.63954 8.81915 6.26932 8.70272 5.91743 8.55717C5.56554 8.41163 5.27963 8.20059 5.0597 7.92406C4.83976 7.64025 4.7298 7.25821 4.7298 6.77791C4.7298 6.28307 4.86176 5.85008 5.12568 5.47894C5.39692 5.10781 5.78547 4.82036 6.29131 4.6166C6.80448 4.40557 7.42396 4.30005 8.14973 4.30005Z" fill="white"></path>
</svg><style>@media (prefers-color-scheme: light) { :root { filter: none; } }
</style></svg>