<svg width="280" height="129" viewBox="0 0 280 129" fill="none" xmlns="http://www.w3.org/2000/svg">
<path d="M16.2682 109.24C17.9856 109.24 19.4976 109.511 20.8042 110.052C22.1296 110.575 23.2776 111.349 24.2482 112.376L21.9242 115.484C21.1216 114.644 20.2536 114.019 19.3202 113.608C18.4056 113.179 17.3602 112.964 16.1842 112.964C15.4936 112.964 14.9336 113.039 14.5042 113.188C14.0749 113.337 13.7669 113.543 13.5802 113.804C13.3936 114.065 13.3002 114.364 13.3002 114.7C13.3002 115.092 13.4776 115.428 13.8322 115.708C14.2056 115.969 14.8029 116.193 15.6242 116.38L18.7322 117.08C20.5802 117.509 21.9336 118.135 22.7922 118.956C23.6509 119.777 24.0802 120.869 24.0802 122.232C24.0802 123.539 23.7442 124.649 23.0722 125.564C22.4002 126.46 21.4762 127.141 20.3002 127.608C19.1242 128.056 17.7802 128.28 16.2682 128.28C15.0362 128.28 13.8602 128.149 12.7402 127.888C11.6202 127.608 10.6122 127.216 9.71624 126.712C8.82024 126.208 8.06424 125.629 7.44824 124.976L9.77224 121.756C10.2389 122.297 10.8082 122.783 11.4802 123.212C12.1709 123.623 12.9176 123.949 13.7202 124.192C14.5416 124.435 15.3722 124.556 16.2122 124.556C16.8656 124.556 17.4069 124.491 17.8362 124.36C18.2842 124.229 18.6109 124.033 18.8162 123.772C19.0216 123.511 19.1242 123.203 19.1242 122.848C19.1242 122.456 18.9842 122.129 18.7042 121.868C18.4242 121.588 17.8922 121.355 17.1082 121.168L13.6922 120.412C12.6469 120.169 11.7136 119.852 10.8922 119.46C10.0896 119.049 9.45491 118.508 8.98824 117.836C8.52158 117.145 8.28824 116.287 8.28824 115.26C8.28824 114.103 8.60558 113.076 9.24024 112.18C9.87491 111.265 10.7896 110.547 11.9842 110.024C13.1789 109.501 14.6069 109.24 16.2682 109.24Z" fill="#313236"/>
<path d="M33.4191 113.72C34.8938 113.72 36.1818 114.009 37.2831 114.588C38.4031 115.148 39.2711 115.979 39.8871 117.08C40.5218 118.163 40.8391 119.469 40.8391 121C40.8391 122.531 40.5218 123.847 39.8871 124.948C39.2711 126.031 38.4031 126.861 37.2831 127.44C36.1818 128 34.8938 128.28 33.4191 128.28C31.9818 128.28 30.7031 128 29.5831 127.44C28.4631 126.861 27.5858 126.031 26.9511 124.948C26.3351 123.847 26.0271 122.531 26.0271 121C26.0271 119.469 26.3351 118.163 26.9511 117.08C27.5858 115.979 28.4631 115.148 29.5831 114.588C30.7031 114.009 31.9818 113.72 33.4191 113.72ZM33.4191 117.108C32.8778 117.108 32.4111 117.239 32.0191 117.5C31.6271 117.761 31.3285 118.181 31.1231 118.76C30.9178 119.339 30.8151 120.085 30.8151 121C30.8151 121.915 30.9178 122.661 31.1231 123.24C31.3285 123.8 31.6271 124.22 32.0191 124.5C32.4111 124.761 32.8778 124.892 33.4191 124.892C33.9791 124.892 34.4551 124.761 34.8471 124.5C35.2391 124.22 35.5378 123.8 35.7431 123.24C35.9485 122.661 36.0511 121.915 36.0511 121C36.0511 120.085 35.9485 119.339 35.7431 118.76C35.5378 118.181 35.2391 117.761 34.8471 117.5C34.4551 117.239 33.9791 117.108 33.4191 117.108Z" fill="#313236"/>
<path d="M49.9588 107.672C50.7241 107.672 51.3961 107.756 51.9748 107.924C52.5535 108.073 52.9828 108.251 53.2628 108.456L52.7868 111.424C52.5815 111.293 52.3481 111.191 52.0868 111.116C51.8255 111.041 51.4988 111.004 51.1068 111.004C50.4535 111.004 49.9121 111.153 49.4828 111.452C49.0721 111.751 48.8668 112.273 48.8668 113.02V114.84L49.1468 115.624V128H44.3868V112.712C44.3868 111.816 44.5268 111.051 44.8068 110.416C45.1055 109.781 45.5161 109.259 46.0388 108.848C46.5615 108.437 47.1588 108.139 47.8308 107.952C48.5028 107.765 49.2121 107.672 49.9588 107.672ZM53.1228 114V117.388H42.1468V114H53.1228Z" fill="#313236"/>
<path d="M59.9235 109.548V123.016C59.9235 123.688 60.0822 124.173 60.3995 124.472C60.7355 124.752 61.1929 124.892 61.7715 124.892C62.2195 124.892 62.6022 124.845 62.9195 124.752C63.2555 124.64 63.5542 124.481 63.8155 124.276L64.3195 127.216C63.8529 127.552 63.2649 127.813 62.5555 128C61.8462 128.187 61.1182 128.28 60.3715 128.28C59.3075 128.28 58.3835 128.131 57.5995 127.832C56.8342 127.533 56.2369 127.057 55.8075 126.404C55.3969 125.751 55.1822 124.883 55.1635 123.8V110.864L59.9235 109.548ZM64.0955 114V117.388H52.7555V114H64.0955Z" fill="#313236"/>
<path d="M84.6342 114H89.6182L85.3902 128H79.6782L77.1302 119.404L74.6662 128H68.9822L64.7262 114H69.7382L72.0902 124.332L74.8342 114H79.5382L82.2542 124.332L84.6342 114Z" fill="#313236"/>
<path d="M99.1531 119.124C99.1531 118.471 98.9664 117.957 98.5931 117.584C98.2384 117.192 97.7531 116.996 97.1371 116.996C96.5211 116.996 95.9891 117.155 95.5411 117.472C95.1117 117.771 94.8131 118.312 94.6451 119.096L90.6131 118.144C90.8744 116.8 91.5651 115.727 92.6851 114.924C93.8051 114.121 95.3824 113.72 97.4171 113.72C98.7797 113.72 99.937 113.925 100.889 114.336C101.86 114.728 102.597 115.325 103.101 116.128C103.624 116.912 103.885 117.883 103.885 119.04V124.164C103.885 124.892 104.212 125.256 104.865 125.256C105.201 125.256 105.472 125.219 105.677 125.144L105.397 127.86C104.837 128.121 104.156 128.252 103.353 128.252C102.625 128.252 101.981 128.14 101.421 127.916C100.861 127.673 100.422 127.319 100.105 126.852C99.7877 126.367 99.6291 125.76 99.6291 125.032V124.864L100.161 124.668C100.161 125.471 99.9184 126.143 99.4331 126.684C98.9664 127.225 98.3504 127.627 97.5851 127.888C96.8384 128.149 96.0544 128.28 95.2331 128.28C94.2811 128.28 93.4504 128.131 92.7411 127.832C92.0317 127.533 91.4811 127.104 91.0891 126.544C90.7157 125.965 90.5291 125.256 90.5291 124.416C90.5291 123.408 90.8277 122.577 91.4251 121.924C92.0411 121.252 93.0024 120.785 94.3091 120.524L99.6011 119.432L99.5731 121.952L96.8851 122.512C96.3251 122.624 95.9051 122.792 95.6251 123.016C95.3637 123.221 95.2331 123.539 95.2331 123.968C95.2331 124.379 95.3824 124.687 95.6811 124.892C95.9797 125.097 96.3344 125.2 96.7451 125.2C97.0624 125.2 97.3611 125.153 97.6411 125.06C97.9397 124.967 98.2011 124.827 98.4251 124.64C98.6491 124.435 98.8264 124.183 98.9571 123.884C99.0877 123.585 99.1531 123.231 99.1531 122.82V119.124Z" fill="#313236"/>
<path d="M107.556 128V114H111.756L111.952 117.024C112.307 115.979 112.829 115.167 113.52 114.588C114.229 114.009 115.125 113.72 116.208 113.72C116.563 113.72 116.861 113.748 117.104 113.804C117.365 113.86 117.571 113.935 117.72 114.028L117.244 117.948C117.057 117.873 116.815 117.817 116.516 117.78C116.236 117.724 115.891 117.696 115.48 117.696C114.92 117.696 114.397 117.817 113.912 118.06C113.427 118.303 113.035 118.667 112.736 119.152C112.456 119.619 112.316 120.216 112.316 120.944V128H107.556Z" fill="#313236"/>
<path d="M126.255 128.28C124.706 128.28 123.362 127.991 122.223 127.412C121.103 126.833 120.235 126.003 119.619 124.92C119.003 123.837 118.695 122.531 118.695 121C118.695 119.469 119.003 118.163 119.619 117.08C120.235 115.997 121.094 115.167 122.195 114.588C123.315 114.009 124.594 113.72 126.031 113.72C127.506 113.72 128.756 114.009 129.783 114.588C130.828 115.148 131.622 115.932 132.163 116.94C132.704 117.929 132.975 119.068 132.975 120.356C132.975 120.692 132.966 121.028 132.947 121.364C132.928 121.7 132.9 121.98 132.863 122.204H121.775V119.656H130.763L128.495 120.524C128.495 119.404 128.29 118.545 127.879 117.948C127.487 117.351 126.871 117.052 126.031 117.052C125.434 117.052 124.92 117.192 124.491 117.472C124.08 117.752 123.763 118.191 123.539 118.788C123.334 119.385 123.231 120.151 123.231 121.084C123.231 121.999 123.352 122.745 123.595 123.324C123.838 123.884 124.183 124.295 124.631 124.556C125.079 124.799 125.62 124.92 126.255 124.92C126.964 124.92 127.524 124.78 127.935 124.5C128.364 124.22 128.682 123.828 128.887 123.324L132.695 124.584C132.434 125.387 131.976 126.068 131.323 126.628C130.688 127.169 129.923 127.58 129.027 127.86C128.15 128.14 127.226 128.28 126.255 128.28Z" fill="#313236"/>
<path d="M151.21 109.24C152.927 109.24 154.439 109.511 155.746 110.052C157.071 110.575 158.219 111.349 159.19 112.376L156.866 115.484C156.063 114.644 155.195 114.019 154.262 113.608C153.347 113.179 152.302 112.964 151.126 112.964C150.435 112.964 149.875 113.039 149.446 113.188C149.016 113.337 148.708 113.543 148.522 113.804C148.335 114.065 148.242 114.364 148.242 114.7C148.242 115.092 148.419 115.428 148.774 115.708C149.147 115.969 149.744 116.193 150.566 116.38L153.674 117.08C155.522 117.509 156.875 118.135 157.734 118.956C158.592 119.777 159.022 120.869 159.022 122.232C159.022 123.539 158.686 124.649 158.014 125.564C157.342 126.46 156.418 127.141 155.242 127.608C154.066 128.056 152.722 128.28 151.21 128.28C149.978 128.28 148.802 128.149 147.682 127.888C146.562 127.608 145.554 127.216 144.658 126.712C143.762 126.208 143.006 125.629 142.39 124.976L144.714 121.756C145.18 122.297 145.75 122.783 146.422 123.212C147.112 123.623 147.859 123.949 148.662 124.192C149.483 124.435 150.314 124.556 151.154 124.556C151.807 124.556 152.348 124.491 152.778 124.36C153.226 124.229 153.552 124.033 153.758 123.772C153.963 123.511 154.066 123.203 154.066 122.848C154.066 122.456 153.926 122.129 153.646 121.868C153.366 121.588 152.834 121.355 152.05 121.168L148.634 120.412C147.588 120.169 146.655 119.852 145.834 119.46C145.031 119.049 144.396 118.508 143.93 117.836C143.463 117.145 143.23 116.287 143.23 115.26C143.23 114.103 143.547 113.076 144.182 112.18C144.816 111.265 145.731 110.547 146.926 110.024C148.12 109.501 149.548 109.24 151.21 109.24Z" fill="#313236"/>
<path d="M168.361 113.72C169.835 113.72 171.123 114.009 172.225 114.588C173.345 115.148 174.213 115.979 174.829 117.08C175.463 118.163 175.781 119.469 175.781 121C175.781 122.531 175.463 123.847 174.829 124.948C174.213 126.031 173.345 126.861 172.225 127.44C171.123 128 169.835 128.28 168.361 128.28C166.923 128.28 165.645 128 164.525 127.44C163.405 126.861 162.527 126.031 161.893 124.948C161.277 123.847 160.969 122.531 160.969 121C160.969 119.469 161.277 118.163 161.893 117.08C162.527 115.979 163.405 115.148 164.525 114.588C165.645 114.009 166.923 113.72 168.361 113.72ZM168.361 117.108C167.819 117.108 167.353 117.239 166.961 117.5C166.569 117.761 166.27 118.181 166.065 118.76C165.859 119.339 165.757 120.085 165.757 121C165.757 121.915 165.859 122.661 166.065 123.24C166.27 123.8 166.569 124.22 166.961 124.5C167.353 124.761 167.819 124.892 168.361 124.892C168.921 124.892 169.397 124.761 169.789 124.5C170.181 124.22 170.479 123.8 170.685 123.24C170.89 122.661 170.993 121.915 170.993 121C170.993 120.085 170.89 119.339 170.685 118.76C170.479 118.181 170.181 117.761 169.789 117.5C169.397 117.239 168.921 117.108 168.361 117.108Z" fill="#313236"/>
<path d="M183.162 108.064V123.24C183.162 123.856 183.265 124.295 183.47 124.556C183.676 124.817 184.021 124.948 184.506 124.948C184.786 124.948 185.02 124.929 185.206 124.892C185.393 124.855 185.617 124.799 185.878 124.724L185.57 127.58C185.234 127.785 184.796 127.953 184.254 128.084C183.713 128.215 183.181 128.28 182.658 128.28C181.165 128.28 180.082 127.935 179.41 127.244C178.738 126.553 178.402 125.424 178.402 123.856V108.064H183.162Z" fill="#313236"/>
<path d="M192.35 128.28C191.398 128.28 190.558 128.121 189.83 127.804C189.121 127.468 188.561 126.936 188.15 126.208C187.74 125.48 187.534 124.528 187.534 123.352V114H192.294V122.232C192.294 123.128 192.472 123.753 192.826 124.108C193.181 124.463 193.685 124.64 194.338 124.64C194.674 124.64 194.992 124.584 195.29 124.472C195.589 124.341 195.85 124.155 196.074 123.912C196.298 123.651 196.466 123.324 196.578 122.932C196.709 122.521 196.774 122.045 196.774 121.504V114H201.534V128H197.278L197.138 125.368C196.69 126.357 196.065 127.095 195.262 127.58C194.46 128.047 193.489 128.28 192.35 128.28Z" fill="#313236"/>
<path d="M210.806 109.548V123.016C210.806 123.688 210.965 124.173 211.282 124.472C211.618 124.752 212.076 124.892 212.654 124.892C213.102 124.892 213.485 124.845 213.802 124.752C214.138 124.64 214.437 124.481 214.698 124.276L215.202 127.216C214.736 127.552 214.148 127.813 213.438 128C212.729 128.187 212.001 128.28 211.254 128.28C210.19 128.28 209.266 128.131 208.482 127.832C207.717 127.533 207.12 127.057 206.69 126.404C206.28 125.751 206.065 124.883 206.046 123.8V110.864L210.806 109.548ZM214.978 114V117.388H203.638V114H214.978Z" fill="#313236"/>
<path d="M219.557 112.376C218.586 112.376 217.877 112.199 217.429 111.844C217 111.471 216.785 110.892 216.785 110.108C216.785 109.305 217 108.727 217.429 108.372C217.877 107.999 218.586 107.812 219.557 107.812C220.509 107.812 221.209 107.999 221.657 108.372C222.105 108.727 222.329 109.305 222.329 110.108C222.329 110.892 222.105 111.471 221.657 111.844C221.209 112.199 220.509 112.376 219.557 112.376ZM221.937 114V128H217.177V114H221.937Z" fill="#313236"/>
<path d="M231.989 113.72C233.464 113.72 234.752 114.009 235.853 114.588C236.973 115.148 237.841 115.979 238.457 117.08C239.092 118.163 239.409 119.469 239.409 121C239.409 122.531 239.092 123.847 238.457 124.948C237.841 126.031 236.973 126.861 235.853 127.44C234.752 128 233.464 128.28 231.989 128.28C230.552 128.28 229.273 128 228.153 127.44C227.033 126.861 226.156 126.031 225.521 124.948C224.905 123.847 224.597 122.531 224.597 121C224.597 119.469 224.905 118.163 225.521 117.08C226.156 115.979 227.033 115.148 228.153 114.588C229.273 114.009 230.552 113.72 231.989 113.72ZM231.989 117.108C231.448 117.108 230.981 117.239 230.589 117.5C230.197 117.761 229.899 118.181 229.693 118.76C229.488 119.339 229.385 120.085 229.385 121C229.385 121.915 229.488 122.661 229.693 123.24C229.899 123.8 230.197 124.22 230.589 124.5C230.981 124.761 231.448 124.892 231.989 124.892C232.549 124.892 233.025 124.761 233.417 124.5C233.809 124.22 234.108 123.8 234.313 123.24C234.519 122.661 234.621 121.915 234.621 121C234.621 120.085 234.519 119.339 234.313 118.76C234.108 118.181 233.809 117.761 233.417 117.5C233.025 117.239 232.549 117.108 231.989 117.108Z" fill="#313236"/>
<path d="M242.087 128V114H246.343L246.595 118.816L246.063 118.284C246.25 117.276 246.576 116.436 247.043 115.764C247.528 115.092 248.126 114.588 248.835 114.252C249.563 113.897 250.375 113.72 251.271 113.72C252.242 113.72 253.082 113.907 253.791 114.28C254.519 114.653 255.088 115.204 255.499 115.932C255.91 116.66 256.115 117.575 256.115 118.676V128H251.355V119.936C251.355 118.965 251.168 118.293 250.795 117.92C250.422 117.547 249.946 117.36 249.367 117.36C248.919 117.36 248.499 117.472 248.107 117.696C247.715 117.901 247.407 118.237 247.183 118.704C246.959 119.171 246.847 119.796 246.847 120.58V128H242.087Z" fill="#313236"/>
<path d="M265.33 128.28C263.93 128.28 262.624 128.056 261.41 127.608C260.216 127.141 259.226 126.479 258.442 125.62L260.682 122.988C261.149 123.585 261.765 124.089 262.53 124.5C263.314 124.892 264.182 125.088 265.134 125.088C265.713 125.088 266.189 125.004 266.562 124.836C266.936 124.668 267.122 124.407 267.122 124.052C267.122 123.791 267.029 123.585 266.842 123.436C266.656 123.268 266.282 123.128 265.722 123.016L263.762 122.624C262.008 122.269 260.757 121.747 260.01 121.056C259.282 120.347 258.918 119.423 258.918 118.284C258.918 117.519 259.152 116.791 259.618 116.1C260.085 115.391 260.804 114.821 261.774 114.392C262.745 113.944 263.986 113.72 265.498 113.72C266.917 113.72 268.168 113.925 269.25 114.336C270.333 114.747 271.192 115.344 271.826 116.128L269.558 118.704C269.11 118.144 268.532 117.705 267.822 117.388C267.113 117.071 266.404 116.912 265.694 116.912C265.246 116.912 264.864 116.959 264.546 117.052C264.248 117.127 264.024 117.239 263.874 117.388C263.725 117.537 263.65 117.724 263.65 117.948C263.65 118.191 263.762 118.405 263.986 118.592C264.229 118.76 264.668 118.909 265.302 119.04L267.85 119.544C269.288 119.805 270.324 120.281 270.958 120.972C271.593 121.663 271.91 122.493 271.91 123.464C271.91 124.379 271.668 125.2 271.182 125.928C270.697 126.656 269.969 127.235 268.998 127.664C268.028 128.075 266.805 128.28 265.33 128.28Z" fill="#313236"/>
<path d="M33.602 0C40.1446 0 45.905 1.02875 50.883 3.08625C55.9322 5.07279 60.3058 8.01714 64.0038 11.9193L55.15 23.7322C52.092 20.5395 48.7851 18.1627 45.2294 16.6019C41.7447 14.9701 37.7622 14.1542 33.282 14.1542C30.6507 14.1542 28.5173 14.438 26.8816 15.0055C25.2459 15.5731 24.0725 16.3536 23.3614 17.3468C22.6502 18.3401 22.2947 19.4753 22.2947 20.7523C22.2947 22.2423 22.9703 23.5193 24.3214 24.5835C25.7438 25.5768 28.0194 26.4282 31.1485 27.1377L42.9892 29.7982C50.0296 31.43 55.1855 33.8068 58.4568 36.9285C61.7281 40.0503 63.3638 44.2007 63.3638 49.3799C63.3638 54.3463 62.0837 58.5677 59.5235 62.0442C56.9634 65.4497 53.4432 68.0393 48.9629 69.813C44.4826 71.5158 39.3623 72.3671 33.602 72.3671C28.9084 72.3671 24.4281 71.8705 20.1612 70.8772C15.8943 69.813 12.0541 68.3231 8.64051 66.4075C5.22698 64.4919 2.34681 62.2925 0 59.8093L8.85386 47.5708C10.6317 49.6283 12.8008 51.4729 15.3609 53.1047C17.9922 54.6656 20.8368 55.9072 23.8948 56.8295C27.0238 57.7518 30.1885 58.213 33.3887 58.213C35.8777 58.213 37.94 57.9647 39.5757 57.468C41.2825 56.9714 42.527 56.2264 43.3092 55.2332C44.0915 54.2399 44.4827 53.0692 44.4827 51.7212C44.4827 50.2313 43.9493 48.9897 42.8826 47.9964C41.8158 46.9322 39.789 46.0454 36.8022 45.3359L23.7881 42.4625C19.8056 41.5402 16.2499 40.334 13.1208 38.8441C10.0628 37.2833 7.6449 35.2258 5.86702 32.6716C4.08913 30.0466 3.20019 26.7829 3.20019 22.8808C3.20019 18.482 4.40915 14.5799 6.82707 11.1743C9.245 7.69788 12.7296 4.96637 17.281 2.97983C21.8324 0.993277 27.2727 0 33.602 0Z" fill="#313236"/>
<path d="M93.1822 1.06422V71.3029H74.8344V1.06422H93.1822Z" fill="#313236"/>
<path d="M108.795 71.3029V1.06422H143.037C151.713 1.13517 158.113 2.80245 162.238 6.06607C166.363 9.25874 168.425 13.9058 168.425 20.0074C168.425 23.9805 167.252 27.4215 164.905 30.3303C162.558 33.1683 158.967 34.9775 154.131 35.7579V35.8643C159.536 36.5738 163.554 38.4539 166.185 41.5047C168.887 44.4845 170.238 48.1029 170.238 52.3598C170.238 58.3904 168.105 63.0729 163.838 66.4075C159.571 69.6711 153.171 71.3029 144.637 71.3029H108.795ZM126.503 58.4258H141.543C144.886 58.4258 147.375 57.7518 149.011 56.4038C150.646 55.0558 151.464 53.1047 151.464 50.5506C151.464 48.0674 150.646 46.1873 149.011 44.9102C147.375 43.5622 144.886 42.8882 141.543 42.8882H126.503V58.4258ZM126.503 29.7982H139.837C146.379 29.7982 149.651 27.2441 149.651 22.1358C149.651 17.0276 146.379 14.4734 139.837 14.4734H126.503V29.7982Z" fill="#313236"/>
<path d="M200.064 1.06422V71.3029H181.716V1.06422H200.064Z" fill="#313236"/>
<path d="M249.278 1.06422C257.67 1.06422 264.177 3.05077 268.799 7.02387C273.493 10.926 275.84 16.1407 275.84 22.6679C275.84 29.8337 273.529 35.2967 268.906 39.057C264.284 42.8172 257.776 44.6974 249.385 44.6974L247.678 45.6552H233.704V71.3029H215.676V1.06422H249.278ZM246.718 32.6716C250.274 32.6716 252.941 31.9622 254.718 30.5432C256.496 29.1242 257.385 26.8539 257.385 23.7322C257.385 20.6814 256.496 18.4465 254.718 17.0276C252.941 15.6086 250.274 14.8991 246.718 14.8991H233.704V32.6716H246.718ZM257.492 36.5028L280 71.3029H259.732L241.704 40.5469L257.492 36.5028Z" fill="#313236"/>
</svg>
