<svg width="124" height="53" viewBox="0 0 124 53" fill="none" xmlns="http://www.w3.org/2000/svg">
<path d="M14.8809 0C17.7783 0 20.3293 0.454902 22.5339 1.36471C24.77 2.24314 26.7069 3.5451 28.3445 5.27059L24.4236 10.4941C23.0693 9.08235 21.6048 8.03137 20.0301 7.34118C18.4869 6.61961 16.7233 6.25882 14.7392 6.25882C13.5739 6.25882 12.6291 6.38431 11.9047 6.63529C11.1803 6.88627 10.6607 7.23137 10.3458 7.67059C10.0308 8.1098 9.87335 8.61176 9.87335 9.17647C9.87335 9.83529 10.1725 10.4 10.7709 10.8706C11.4008 11.3098 12.4086 11.6863 13.7943 12L19.0381 13.1765C22.156 13.898 24.4393 14.949 25.888 16.3294C27.3367 17.7098 28.0611 19.5451 28.0611 21.8353C28.0611 24.0314 27.4942 25.898 26.3604 27.4353C25.2266 28.9412 23.6677 30.0863 21.6836 30.8706C19.6995 31.6235 17.4319 32 14.8809 32C12.8023 32 10.8182 31.7804 8.92853 31.3412C7.0389 30.8706 5.33822 30.2118 3.82651 29.3647C2.3148 28.5176 1.0393 27.5451 0 26.4471L3.921 21.0353C4.70834 21.9451 5.66891 22.7608 6.80269 23.4824C7.96797 24.1725 9.22772 24.7216 10.582 25.1294C11.9677 25.5373 13.3692 25.7412 14.7864 25.7412C15.8887 25.7412 16.802 25.6314 17.5264 25.4118C18.2822 25.1922 18.8334 24.8627 19.1798 24.4235C19.5262 23.9843 19.6995 23.4667 19.6995 22.8706C19.6995 22.2118 19.4633 21.6627 18.9908 21.2235C18.5184 20.7529 17.6209 20.3608 16.2981 20.0471L10.5347 18.7765C8.77106 18.3686 7.19637 17.8353 5.81063 17.1765C4.45639 16.4863 3.3856 15.5765 2.59825 14.4471C1.8109 13.2863 1.41723 11.8431 1.41723 10.1176C1.41723 8.17255 1.95262 6.44706 3.02342 4.94118C4.09421 3.40392 5.63741 2.19608 7.65303 1.31765C9.66864 0.439217 12.0779 0 14.8809 0Z" fill="#313236"/>
<path d="M41.2664 0.470588V31.5294H33.141V0.470588H41.2664Z" fill="#313236"/>
<path d="M48.1806 31.5294V0.470588H63.3449C67.1871 0.50196 70.0216 1.23922 71.8483 2.68235C73.6749 4.09412 74.5882 6.14902 74.5882 8.84706C74.5882 10.6039 74.0686 12.1255 73.0293 13.4118C71.99 14.6667 70.3995 15.4667 68.2579 15.8118V15.8588C70.6515 16.1726 72.4309 17.0039 73.5962 18.3529C74.7929 19.6706 75.3913 21.2706 75.3913 23.1529C75.3913 25.8196 74.4465 27.8902 72.5569 29.3647C70.6672 30.8078 67.8328 31.5294 64.0535 31.5294H48.1806ZM56.0225 25.8353H62.6835C64.1637 25.8353 65.266 25.5373 65.9904 24.9412C66.7147 24.3451 67.0769 23.4824 67.0769 22.3529C67.0769 21.2549 66.7147 20.4235 65.9904 19.8588C65.266 19.2627 64.1637 18.9647 62.6835 18.9647H56.0225V25.8353ZM56.0225 13.1765H61.9277C64.8251 13.1765 66.2738 12.0471 66.2738 9.78824C66.2738 7.52941 64.8251 6.4 61.9277 6.4H56.0225V13.1765Z" fill="#313236"/>
<path d="M88.5996 0.470588V31.5294H80.4741V0.470588H88.5996Z" fill="#313236"/>
<path d="M110.395 0.470588C114.111 0.470588 116.993 1.34902 119.04 3.10588C121.118 4.83137 122.158 7.13725 122.158 10.0235C122.158 13.1922 121.134 15.6078 119.087 17.2706C117.04 18.9333 114.158 19.7647 110.442 19.7647L109.686 20.1882H103.497V31.5294H95.5137V0.470588H110.395ZM109.261 14.4471C110.836 14.4471 112.017 14.1333 112.804 13.5059C113.591 12.8784 113.985 11.8745 113.985 10.4941C113.985 9.1451 113.591 8.15686 112.804 7.52941C112.017 6.90196 110.836 6.58824 109.261 6.58824H103.497V14.4471H109.261ZM114.032 16.1412L124 31.5294H115.024L107.041 17.9294L114.032 16.1412Z" fill="#313236"/>
<path d="M6.58092 43.6622C7.34418 43.6622 8.01618 43.7825 8.59692 44.0231C9.18596 44.2554 9.69618 44.5997 10.1276 45.056L9.0947 46.4373C8.73796 46.064 8.35218 45.7861 7.93736 45.6036C7.53085 45.4127 7.06625 45.3173 6.54359 45.3173C6.23662 45.3173 5.98773 45.3505 5.79692 45.4169C5.6061 45.4833 5.46922 45.5745 5.38625 45.6907C5.30329 45.8068 5.26181 45.9396 5.26181 46.0889C5.26181 46.2631 5.34062 46.4124 5.49825 46.5369C5.66418 46.653 5.92966 46.7526 6.2947 46.8356L7.67603 47.1467C8.49736 47.3375 9.09885 47.6154 9.48047 47.9804C9.8621 48.3455 10.0529 48.8308 10.0529 49.4364C10.0529 50.0172 9.90359 50.5108 9.60492 50.9173C9.30625 51.3156 8.89559 51.6184 8.37292 51.8258C7.85025 52.0249 7.25292 52.1244 6.58092 52.1244C6.03336 52.1244 5.5107 52.0664 5.01292 51.9502C4.51514 51.8258 4.06714 51.6516 3.66892 51.4276C3.2707 51.2036 2.9347 50.9464 2.66092 50.656L3.69381 49.2249C3.90122 49.4655 4.15425 49.6812 4.45292 49.872C4.75988 50.0545 5.09173 50.1997 5.44847 50.3076C5.81351 50.4154 6.1827 50.4693 6.55603 50.4693C6.8464 50.4693 7.08699 50.4403 7.27781 50.3822C7.47692 50.3241 7.6221 50.237 7.71336 50.1209C7.80462 50.0047 7.85025 49.8679 7.85025 49.7102C7.85025 49.536 7.78803 49.3908 7.66359 49.2747C7.53914 49.1502 7.3027 49.0465 6.95425 48.9636L5.43603 48.6276C4.97144 48.5197 4.55662 48.3787 4.19159 48.2044C3.83485 48.0219 3.55277 47.7813 3.34536 47.4827C3.13796 47.1757 3.03425 46.7941 3.03425 46.3378C3.03425 45.8234 3.17529 45.3671 3.45736 44.9689C3.73944 44.5624 4.14596 44.243 4.67692 44.0107C5.20788 43.7784 5.84255 43.6622 6.58092 43.6622Z" fill="#313236"/>
<path d="M14.2035 45.6533C14.8589 45.6533 15.4314 45.7819 15.9209 46.0391C16.4186 46.288 16.8044 46.6572 17.0782 47.1467C17.3603 47.6279 17.5013 48.2086 17.5013 48.8889C17.5013 49.5692 17.3603 50.1541 17.0782 50.6436C16.8044 51.1247 16.4186 51.4939 15.9209 51.7511C15.4314 52 14.8589 52.1244 14.2035 52.1244C13.5647 52.1244 12.9964 52 12.4986 51.7511C12.0009 51.4939 11.6109 51.1247 11.3289 50.6436C11.0551 50.1541 10.9182 49.5692 10.9182 48.8889C10.9182 48.2086 11.0551 47.6279 11.3289 47.1467C11.6109 46.6572 12.0009 46.288 12.4986 46.0391C12.9964 45.7819 13.5647 45.6533 14.2035 45.6533ZM14.2035 47.1591C13.9629 47.1591 13.7555 47.2172 13.5813 47.3333C13.4071 47.4495 13.2743 47.6361 13.1831 47.8933C13.0918 48.1505 13.0462 48.4824 13.0462 48.8889C13.0462 49.2954 13.0918 49.6273 13.1831 49.8844C13.2743 50.1333 13.4071 50.32 13.5813 50.4444C13.7555 50.5606 13.9629 50.6187 14.2035 50.6187C14.4524 50.6187 14.664 50.5606 14.8382 50.4444C15.0124 50.32 15.1452 50.1333 15.2364 49.8844C15.3277 49.6273 15.3733 49.2954 15.3733 48.8889C15.3733 48.4824 15.3277 48.1505 15.2364 47.8933C15.1452 47.6361 15.0124 47.4495 14.8382 47.3333C14.664 47.2172 14.4524 47.1591 14.2035 47.1591Z" fill="#313236"/>
<path d="M21.5545 42.9653C21.8947 42.9653 22.1933 43.0027 22.4505 43.0773C22.7077 43.1437 22.8985 43.2225 23.0229 43.3138L22.8114 44.6329C22.7201 44.5748 22.6164 44.5292 22.5003 44.496C22.3841 44.4628 22.2389 44.4462 22.0647 44.4462C21.7744 44.4462 21.5338 44.5126 21.3429 44.6453C21.1604 44.7781 21.0692 45.0104 21.0692 45.3422V46.1511L21.1936 46.4996V52H19.0781V45.2053C19.0781 44.8071 19.1403 44.467 19.2647 44.1849C19.3975 43.9028 19.58 43.6705 19.8123 43.488C20.0446 43.3055 20.3101 43.1727 20.6087 43.0898C20.9074 43.0068 21.2227 42.9653 21.5545 42.9653ZM22.9607 45.7778V47.2836H18.0825V45.7778H22.9607Z" fill="#313236"/>
<path d="M25.9833 43.7991V49.7849C25.9833 50.0836 26.0538 50.2993 26.1948 50.432C26.3442 50.5564 26.5474 50.6187 26.8046 50.6187C27.0037 50.6187 27.1738 50.5979 27.3148 50.5564C27.4642 50.5067 27.5969 50.4361 27.713 50.3449L27.937 51.6516C27.7296 51.8009 27.4683 51.917 27.153 52C26.8378 52.083 26.5142 52.1244 26.1824 52.1244C25.7095 52.1244 25.2988 52.0581 24.9504 51.9253C24.6102 51.7926 24.3447 51.581 24.1539 51.2907C23.9714 51.0003 23.876 50.6145 23.8677 50.1333V44.384L25.9833 43.7991ZM27.8375 45.7778V47.2836H22.7975V45.7778H27.8375Z" fill="#313236"/>
<path d="M36.9658 45.7778H39.1809L37.3018 52H34.7631L33.6307 48.1796L32.5356 52H30.0093L28.1178 45.7778H30.3453L31.3907 50.3698L32.6102 45.7778H34.7009L35.908 50.3698L36.9658 45.7778Z" fill="#313236"/>
<path d="M43.4186 48.0551C43.4186 47.7647 43.3357 47.5366 43.1697 47.3707C43.0121 47.1964 42.7964 47.1093 42.5226 47.1093C42.2488 47.1093 42.0124 47.1799 41.8133 47.3209C41.6225 47.4536 41.4897 47.6942 41.4151 48.0427L39.6231 47.6196C39.7392 47.0222 40.0462 46.5452 40.5439 46.1884C41.0417 45.8317 41.7428 45.6533 42.6471 45.6533C43.2527 45.6533 43.7671 45.7446 44.1902 45.9271C44.6216 46.1013 44.9493 46.3668 45.1733 46.7236C45.4056 47.072 45.5217 47.5034 45.5217 48.0178V50.2951C45.5217 50.6187 45.6669 50.7804 45.9573 50.7804C46.1066 50.7804 46.2269 50.7639 46.3182 50.7307L46.1937 51.9378C45.9448 52.0539 45.642 52.112 45.2853 52.112C44.9617 52.112 44.6755 52.0622 44.4266 51.9627C44.1777 51.8548 43.9828 51.6972 43.8417 51.4898C43.7007 51.2741 43.6302 51.0044 43.6302 50.6809V50.6062L43.8666 50.5191C43.8666 50.8759 43.7588 51.1745 43.5431 51.4151C43.3357 51.6557 43.0619 51.8341 42.7217 51.9502C42.3899 52.0664 42.0414 52.1244 41.6764 52.1244C41.2533 52.1244 40.8841 52.0581 40.5688 51.9253C40.2536 51.7926 40.0088 51.6018 39.8346 51.3529C39.6687 51.0957 39.5857 50.7804 39.5857 50.4071C39.5857 49.9591 39.7185 49.5899 39.9839 49.2996C40.2577 49.0009 40.685 48.7935 41.2657 48.6773L43.6177 48.192L43.6053 49.312L42.4106 49.5609C42.1617 49.6107 41.9751 49.6853 41.8506 49.7849C41.7345 49.8761 41.6764 50.0172 41.6764 50.208C41.6764 50.3905 41.7428 50.5274 41.8755 50.6187C42.0082 50.7099 42.1659 50.7556 42.3484 50.7556C42.4894 50.7556 42.6222 50.7348 42.7466 50.6933C42.8794 50.6519 42.9955 50.5896 43.0951 50.5067C43.1946 50.4154 43.2734 50.3034 43.3315 50.1707C43.3896 50.0379 43.4186 49.8803 43.4186 49.6978V48.0551Z" fill="#313236"/>
<path d="M47.1532 52V45.7778H49.0199L49.107 47.1218C49.2646 46.6572 49.4969 46.2963 49.8039 46.0391C50.1191 45.7819 50.5174 45.6533 50.9985 45.6533C51.1562 45.6533 51.2889 45.6658 51.3968 45.6907C51.5129 45.7156 51.6042 45.7487 51.6705 45.7902L51.459 47.5324C51.376 47.4993 51.2682 47.4744 51.1354 47.4578C51.011 47.4329 50.8575 47.4204 50.675 47.4204C50.4261 47.4204 50.1938 47.4744 49.9781 47.5822C49.7624 47.6901 49.5882 47.8519 49.4554 48.0676C49.331 48.275 49.2688 48.5404 49.2688 48.864V52H47.1532Z" fill="#313236"/>
<path d="M55.464 52.1244C54.7754 52.1244 54.178 51.9959 53.672 51.7387C53.1742 51.4815 52.7884 51.1123 52.5146 50.6311C52.2408 50.1499 52.104 49.5692 52.104 48.8889C52.104 48.2086 52.2408 47.6279 52.5146 47.1467C52.7884 46.6655 53.17 46.2963 53.6595 46.0391C54.1573 45.7819 54.7256 45.6533 55.3644 45.6533C56.0198 45.6533 56.5757 45.7819 57.032 46.0391C57.4966 46.288 57.8491 46.6364 58.0897 47.0844C58.3303 47.5241 58.4506 48.0302 58.4506 48.6027C58.4506 48.752 58.4465 48.9013 58.4382 49.0507C58.4299 49.2 58.4174 49.3244 58.4008 49.424H53.4729V48.2916H57.4675L56.4595 48.6773C56.4595 48.1796 56.3683 47.7979 56.1857 47.5324C56.0115 47.267 55.7377 47.1342 55.3644 47.1342C55.0989 47.1342 54.8708 47.1964 54.68 47.3209C54.4974 47.4453 54.3564 47.6403 54.2568 47.9058C54.1656 48.1713 54.12 48.5114 54.12 48.9262C54.12 49.3327 54.1739 49.6646 54.2817 49.9218C54.3896 50.1707 54.5431 50.3532 54.7422 50.4693C54.9413 50.5772 55.1819 50.6311 55.464 50.6311C55.7792 50.6311 56.0281 50.5689 56.2106 50.4444C56.4014 50.32 56.5425 50.1458 56.6337 49.9218L58.3262 50.4818C58.21 50.8385 58.0068 51.1413 57.7164 51.3902C57.4343 51.6308 57.0942 51.8133 56.696 51.9378C56.306 52.0622 55.8954 52.1244 55.464 52.1244Z" fill="#313236"/>
<path d="M66.5549 43.6622C67.3181 43.6622 67.9901 43.7825 68.5709 44.0231C69.1599 44.2554 69.6701 44.5997 70.1015 45.056L69.0687 46.4373C68.7119 46.064 68.3261 45.7861 67.9113 45.6036C67.5048 45.4127 67.0402 45.3173 66.5175 45.3173C66.2106 45.3173 65.9617 45.3505 65.7709 45.4169C65.5801 45.4833 65.4432 45.5745 65.3602 45.6907C65.2773 45.8068 65.2358 45.9396 65.2358 46.0889C65.2358 46.2631 65.3146 46.4124 65.4722 46.5369C65.6381 46.653 65.9036 46.7526 66.2687 46.8356L67.65 47.1467C68.4713 47.3375 69.0728 47.6154 69.4544 47.9804C69.8361 48.3455 70.0269 48.8308 70.0269 49.4364C70.0269 50.0172 69.8775 50.5108 69.5789 50.9173C69.2802 51.3156 68.8695 51.6184 68.3469 51.8258C67.8242 52.0249 67.2269 52.1244 66.5549 52.1244C66.0073 52.1244 65.4847 52.0664 64.9869 51.9502C64.4891 51.8258 64.0411 51.6516 63.6429 51.4276C63.2447 51.2036 62.9087 50.9464 62.6349 50.656L63.6678 49.2249C63.8752 49.4655 64.1282 49.6812 64.4269 49.872C64.7338 50.0545 65.0657 50.1997 65.4224 50.3076C65.7875 50.4154 66.1567 50.4693 66.53 50.4693C66.8204 50.4693 67.061 50.4403 67.2518 50.3822C67.4509 50.3241 67.5961 50.237 67.6873 50.1209C67.7786 50.0047 67.8242 49.8679 67.8242 49.7102C67.8242 49.536 67.762 49.3908 67.6376 49.2747C67.5131 49.1502 67.2767 49.0465 66.9282 48.9636L65.41 48.6276C64.9454 48.5197 64.5306 48.3787 64.1655 48.2044C63.8088 48.0219 63.5267 47.7813 63.3193 47.4827C63.1119 47.1757 63.0082 46.7941 63.0082 46.3378C63.0082 45.8234 63.1493 45.3671 63.4313 44.9689C63.7134 44.5624 64.1199 44.243 64.6509 44.0107C65.1818 43.7784 65.8165 43.6622 66.5549 43.6622Z" fill="#313236"/>
<path d="M74.1775 45.6533C74.8329 45.6533 75.4053 45.7819 75.8948 46.0391C76.3926 46.288 76.7784 46.6572 77.0521 47.1467C77.3342 47.6279 77.4753 48.2086 77.4753 48.8889C77.4753 49.5692 77.3342 50.1541 77.0521 50.6436C76.7784 51.1247 76.3926 51.4939 75.8948 51.7511C75.4053 52 74.8329 52.1244 74.1775 52.1244C73.5387 52.1244 72.9704 52 72.4726 51.7511C71.9748 51.4939 71.5849 51.1247 71.3028 50.6436C71.029 50.1541 70.8922 49.5692 70.8922 48.8889C70.8922 48.2086 71.029 47.6279 71.3028 47.1467C71.5849 46.6572 71.9748 46.288 72.4726 46.0391C72.9704 45.7819 73.5387 45.6533 74.1775 45.6533ZM74.1775 47.1591C73.9369 47.1591 73.7295 47.2172 73.5553 47.3333C73.381 47.4495 73.2483 47.6361 73.157 47.8933C73.0658 48.1505 73.0201 48.4824 73.0201 48.8889C73.0201 49.2954 73.0658 49.6273 73.157 49.8844C73.2483 50.1333 73.381 50.32 73.5553 50.4444C73.7295 50.5606 73.9369 50.6187 74.1775 50.6187C74.4264 50.6187 74.6379 50.5606 74.8121 50.4444C74.9864 50.32 75.1191 50.1333 75.2104 49.8844C75.3016 49.6273 75.3473 49.2954 75.3473 48.8889C75.3473 48.4824 75.3016 48.1505 75.2104 47.8933C75.1191 47.6361 74.9864 47.4495 74.8121 47.3333C74.6379 47.2172 74.4264 47.1591 74.1775 47.1591Z" fill="#313236"/>
<path d="M80.756 43.1396V49.8844C80.756 50.1582 80.8017 50.3532 80.8929 50.4693C80.9842 50.5855 81.1377 50.6436 81.3534 50.6436C81.4778 50.6436 81.5815 50.6353 81.6645 50.6187C81.7474 50.6021 81.847 50.5772 81.9631 50.544L81.8263 51.8133C81.6769 51.9046 81.482 51.9793 81.2414 52.0373C81.0008 52.0954 80.7643 52.1244 80.532 52.1244C79.8683 52.1244 79.3871 51.971 79.0885 51.664C78.7898 51.357 78.6405 50.8551 78.6405 50.1582V43.1396H80.756Z" fill="#313236"/>
<path d="M84.8397 52.1244C84.4165 52.1244 84.0432 52.0539 83.7197 51.9129C83.4044 51.7636 83.1555 51.5271 82.973 51.2036C82.7905 50.88 82.6992 50.4569 82.6992 49.9342V45.7778H84.8148V49.4364C84.8148 49.8347 84.8936 50.1126 85.0512 50.2702C85.2088 50.4279 85.4328 50.5067 85.7232 50.5067C85.8725 50.5067 86.0136 50.4818 86.1463 50.432C86.2791 50.3739 86.3952 50.291 86.4948 50.1831C86.5943 50.067 86.669 49.9218 86.7188 49.7476C86.7768 49.565 86.8059 49.3535 86.8059 49.1129V45.7778H88.9214V52H87.0299L86.9677 50.8302C86.7685 51.2699 86.4906 51.5976 86.1339 51.8133C85.7771 52.0207 85.3457 52.1244 84.8397 52.1244Z" fill="#313236"/>
<path d="M93.0423 43.7991V49.7849C93.0423 50.0836 93.1128 50.2993 93.2539 50.432C93.4032 50.5564 93.6064 50.6187 93.8636 50.6187C94.0627 50.6187 94.2328 50.5979 94.3739 50.5564C94.5232 50.5067 94.6559 50.4361 94.7721 50.3449L94.9961 51.6516C94.7887 51.8009 94.5273 51.917 94.2121 52C93.8968 52.083 93.5733 52.1244 93.2414 52.1244C92.7685 52.1244 92.3579 52.0581 92.0094 51.9253C91.6693 51.7926 91.4038 51.581 91.213 51.2907C91.0304 51.0003 90.935 50.6145 90.9267 50.1333V44.384L93.0423 43.7991ZM94.8965 45.7778V47.2836H89.8565V45.7778H94.8965Z" fill="#313236"/>
<path d="M96.9315 45.056C96.5001 45.056 96.1848 44.9772 95.9857 44.8196C95.7949 44.6536 95.6995 44.3964 95.6995 44.048C95.6995 43.6913 95.7949 43.4341 95.9857 43.2764C96.1848 43.1105 96.5001 43.0276 96.9315 43.0276C97.3546 43.0276 97.6657 43.1105 97.8648 43.2764C98.0639 43.4341 98.1635 43.6913 98.1635 44.048C98.1635 44.3964 98.0639 44.6536 97.8648 44.8196C97.6657 44.9772 97.3546 45.056 96.9315 45.056ZM97.9893 45.7778V52H95.8737V45.7778H97.9893Z" fill="#313236"/>
<path d="M102.457 45.6533C103.112 45.6533 103.685 45.7819 104.174 46.0391C104.672 46.288 105.058 46.6572 105.332 47.1467C105.614 47.6279 105.755 48.2086 105.755 48.8889C105.755 49.5692 105.614 50.1541 105.332 50.6436C105.058 51.1247 104.672 51.4939 104.174 51.7511C103.685 52 103.112 52.1244 102.457 52.1244C101.818 52.1244 101.25 52 100.752 51.7511C100.254 51.4939 99.8644 51.1247 99.5823 50.6436C99.3086 50.1541 99.1717 49.5692 99.1717 48.8889C99.1717 48.2086 99.3086 47.6279 99.5823 47.1467C99.8644 46.6572 100.254 46.288 100.752 46.0391C101.25 45.7819 101.818 45.6533 102.457 45.6533ZM102.457 47.1591C102.216 47.1591 102.009 47.2172 101.835 47.3333C101.661 47.4495 101.528 47.6361 101.437 47.8933C101.345 48.1505 101.3 48.4824 101.3 48.8889C101.3 49.2954 101.345 49.6273 101.437 49.8844C101.528 50.1333 101.661 50.32 101.835 50.4444C102.009 50.5606 102.216 50.6187 102.457 50.6187C102.706 50.6187 102.917 50.5606 103.092 50.4444C103.266 50.32 103.399 50.1333 103.49 49.8844C103.581 49.6273 103.627 49.2954 103.627 48.8889C103.627 48.4824 103.581 48.1505 103.49 47.8933C103.399 47.6361 103.266 47.4495 103.092 47.3333C102.917 47.2172 102.706 47.1591 102.457 47.1591Z" fill="#313236"/>
<path d="M106.945 52V45.7778H108.836L108.948 47.9182L108.712 47.6818C108.795 47.2338 108.94 46.8604 109.148 46.5618C109.363 46.2631 109.629 46.0391 109.944 45.8898C110.268 45.7321 110.628 45.6533 111.027 45.6533C111.458 45.6533 111.831 45.7363 112.147 45.9022C112.47 46.0681 112.723 46.3129 112.906 46.6364C113.088 46.96 113.18 47.3665 113.18 47.856V52H111.064V48.416C111.064 47.9846 110.981 47.6859 110.815 47.52C110.649 47.3541 110.438 47.2711 110.18 47.2711C109.981 47.2711 109.795 47.3209 109.62 47.4204C109.446 47.5117 109.309 47.661 109.21 47.8684C109.11 48.0759 109.06 48.3538 109.06 48.7022V52H106.945Z" fill="#313236"/>
<path d="M117.275 52.1244C116.653 52.1244 116.072 52.0249 115.533 51.8258C115.002 51.6184 114.562 51.3239 114.214 50.9422L115.209 49.7724C115.417 50.0379 115.691 50.2619 116.031 50.4444C116.379 50.6187 116.765 50.7058 117.188 50.7058C117.445 50.7058 117.657 50.6684 117.823 50.5938C117.989 50.5191 118.072 50.403 118.072 50.2453C118.072 50.1292 118.03 50.0379 117.947 49.9716C117.864 49.8969 117.698 49.8347 117.449 49.7849L116.578 49.6107C115.798 49.453 115.243 49.2207 114.911 48.9138C114.587 48.5985 114.425 48.1879 114.425 47.6818C114.425 47.3416 114.529 47.0181 114.737 46.7111C114.944 46.3959 115.263 46.1428 115.695 45.952C116.126 45.7529 116.678 45.6533 117.35 45.6533C117.98 45.6533 118.536 45.7446 119.017 45.9271C119.499 46.1096 119.88 46.3751 120.162 46.7236L119.154 47.8684C118.955 47.6196 118.698 47.4246 118.383 47.2836C118.068 47.1425 117.752 47.072 117.437 47.072C117.238 47.072 117.068 47.0927 116.927 47.1342C116.794 47.1674 116.694 47.2172 116.628 47.2836C116.562 47.3499 116.529 47.4329 116.529 47.5324C116.529 47.6403 116.578 47.7357 116.678 47.8187C116.786 47.8933 116.981 47.9597 117.263 48.0178L118.395 48.2418C119.034 48.3579 119.494 48.5695 119.777 48.8764C120.059 49.1834 120.2 49.5526 120.2 49.984C120.2 50.3905 120.092 50.7556 119.876 51.0791C119.66 51.4027 119.337 51.6599 118.905 51.8507C118.474 52.0332 117.931 52.1244 117.275 52.1244Z" fill="#313236"/>
</svg>
