<svg width="107" height="82" viewBox="0 0 107 82" fill="none" xmlns="http://www.w3.org/2000/svg">
<path d="M4.80226 76.359V60.8596H0V57.4294H13.4667V60.8596H8.74062V76.359H4.80226Z" fill="#313236"/>
<path d="M15.1375 76.359V62.4858H18.9488V76.359H15.1375ZM15.1375 61.2408V57.4294H18.9488V61.2408H15.1375Z" fill="#313236"/>
<path d="M21.7378 76.359V62.4858H25.295V65.8652L24.9139 65.3062C25.1172 64.239 25.6084 63.4513 26.3876 62.9432C27.1668 62.435 28.0985 62.1809 29.1826 62.1809C30.3344 62.1809 31.3423 62.4773 32.2062 63.0702C33.0871 63.6461 33.6376 64.4253 33.8578 65.4078L32.7652 65.5094C33.2226 64.3745 33.8747 63.536 34.7217 62.994C35.5686 62.4519 36.5596 62.1809 37.6945 62.1809C38.6939 62.1809 39.5748 62.4011 40.337 62.8415C41.1162 63.2819 41.726 63.9002 42.1665 64.6964C42.6069 65.4756 42.8271 66.3903 42.8271 67.4405V76.359H39.0158V68.2536C39.0158 67.7115 38.9141 67.2457 38.7109 66.8561C38.5245 66.4665 38.2535 66.1616 37.8978 65.9414C37.5421 65.7212 37.1101 65.6111 36.6019 65.6111C36.1107 65.6111 35.6787 65.7212 35.3061 65.9414C34.9504 66.1616 34.6709 66.4665 34.4676 66.8561C34.2813 67.2457 34.1881 67.7115 34.1881 68.2536V76.359H30.3768V68.2536C30.3768 67.7115 30.2752 67.2457 30.0719 66.8561C29.8856 66.4665 29.6145 66.1616 29.2588 65.9414C28.9031 65.7212 28.4711 65.6111 27.963 65.6111C27.4717 65.6111 27.0398 65.7212 26.6671 65.9414C26.3114 66.1616 26.0319 66.4665 25.8286 66.8561C25.6423 67.2457 25.5491 67.7115 25.5491 68.2536V76.359H21.7378Z" fill="#313236"/>
<path d="M52.0177 76.6639C50.544 76.6639 49.2651 76.342 48.181 75.6984C47.0969 75.0377 46.2584 74.1569 45.6655 73.0558C45.0727 71.9548 44.7762 70.7352 44.7762 69.397C44.7762 68.008 45.0811 66.7714 45.6909 65.6873C46.3177 64.6032 47.1562 63.7478 48.2064 63.121C49.2566 62.4943 50.4424 62.1809 51.7636 62.1809C52.8647 62.1809 53.8387 62.3587 54.6856 62.7145C55.5326 63.0533 56.244 63.536 56.82 64.1628C57.4128 64.7895 57.8617 65.5179 58.1666 66.3479C58.4715 67.161 58.624 68.0503 58.624 69.0158C58.624 69.2869 58.6071 69.5579 58.5732 69.8289C58.5562 70.083 58.5139 70.3032 58.4461 70.4896H48.054V67.6946H56.2864L54.4824 69.0158C54.6518 68.2875 54.6433 67.6438 54.457 67.0848C54.2706 66.5088 53.9403 66.06 53.466 65.7381C53.0087 65.3993 52.4412 65.2299 51.7636 65.2299C51.103 65.2299 50.5355 65.3909 50.0612 65.7127C49.5869 66.0346 49.2312 66.5088 48.9941 67.1356C48.7569 67.7623 48.6638 68.5246 48.7146 69.4224C48.6468 70.2016 48.74 70.8876 48.9941 71.4805C49.2482 72.0734 49.6378 72.5392 50.1629 72.878C50.688 73.1998 51.3232 73.3607 52.0685 73.3607C52.7461 73.3607 53.322 73.2252 53.7963 72.9542C54.2876 72.6832 54.6687 72.3105 54.9397 71.8362L57.9888 73.2845C57.7178 73.9621 57.2858 74.555 56.6929 75.0631C56.117 75.5713 55.431 75.9694 54.6348 76.2574C53.8387 76.5284 52.9663 76.6639 52.0177 76.6639Z" fill="#313236"/>
<path d="M64.9651 76.359L59.5022 62.4858H63.6184L67.4043 72.9796H65.829L69.6149 62.4858H73.7311L68.2682 76.359H64.9651Z" fill="#313236"/>
<path d="M75.4089 76.359V62.4858H79.2202V76.359H75.4089ZM75.4089 61.2408V57.4294H79.2202V61.2408H75.4089Z" fill="#313236"/>
<path d="M88.6917 76.5114C87.0147 76.5114 85.7104 76.0625 84.7788 75.1648C83.864 74.2501 83.4067 72.9796 83.4067 71.3535V65.7889H81.0691V62.4858H81.1961C81.9076 62.4858 82.4496 62.3079 82.8223 61.9522C83.2119 61.5965 83.4067 61.0629 83.4067 60.3515V59.3351H87.218V62.4858H90.4703V65.7889H87.218V71.0994C87.218 71.5737 87.3027 71.9717 87.4721 72.2936C87.6415 72.5985 87.904 72.8272 88.2598 72.9796C88.6155 73.1321 89.0559 73.2083 89.581 73.2083C89.6996 73.2083 89.8351 73.1998 89.9876 73.1829C90.14 73.1659 90.3009 73.149 90.4703 73.1321V76.359C90.2162 76.3929 89.9283 76.4267 89.6064 76.4606C89.2846 76.4945 88.9797 76.5114 88.6917 76.5114Z" fill="#313236"/>
<path d="M94.8635 81.9997C94.4569 81.9997 94.0589 81.9659 93.6693 81.8981C93.2966 81.8303 92.9663 81.7202 92.6783 81.5678V78.4425C92.9155 78.5103 93.195 78.5696 93.5168 78.6204C93.8386 78.6712 94.1351 78.6966 94.4061 78.6966C95.1514 78.6966 95.685 78.5187 96.0069 78.163C96.3287 77.8073 96.5913 77.4007 96.7945 76.9434L97.7347 74.7836L97.6838 77.9597L91.5857 62.4858H95.6766L99.7165 73.4878H98.192L102.232 62.4858H106.323L100.377 77.6548C100.005 78.6204 99.5471 79.425 99.0051 80.0687C98.463 80.7124 97.8448 81.1951 97.1503 81.517C96.4727 81.8388 95.7104 81.9997 94.8635 81.9997Z" fill="#313236"/>
<path d="M63.1354 35.3366C64.115 35.3366 64.9188 34.5394 64.8197 33.5648C64.085 26.3381 58.9134 20.7385 52.6428 20.7385C46.3723 20.7385 41.2007 26.3381 40.466 33.5648C40.3669 34.5394 41.1706 35.3366 42.1502 35.3366H63.1354Z" fill="#313236"/>
<path d="M42.1504 4.41073e-06C41.1709 4.30881e-06 40.3671 0.797198 40.4662 1.77176C41.2009 8.99845 46.3725 14.598 52.643 14.598C58.9136 14.598 64.0852 8.99845 64.8199 1.77176C64.919 0.797201 64.1152 6.69597e-06 63.1356 6.59405e-06L42.1504 4.41073e-06Z" fill="#313236"/>
</svg>
