<svg width="74" height="20" viewBox="0 0 74 20" fill="none" xmlns="http://www.w3.org/2000/svg">
<path d="M8.88053 0C10.6096 0 12.132 0.272524 13.4477 0.817572C14.7821 1.34383 15.938 2.12381 16.9153 3.15752L14.5753 6.28685C13.7672 5.44109 12.8932 4.81146 11.9535 4.39798C11.0325 3.9657 9.98002 3.74956 8.79595 3.74956C8.10055 3.74956 7.5367 3.82474 7.10442 3.97509C6.67214 4.12545 6.36203 4.33219 6.17408 4.59532C5.98613 4.85845 5.89216 5.15916 5.89216 5.49747C5.89216 5.89216 6.07071 6.23047 6.42781 6.51239C6.80371 6.77551 7.40514 7.00105 8.23211 7.189L11.3614 7.8938C13.2221 8.32608 14.5847 8.95571 15.4493 9.78268C16.3139 10.6096 16.7461 11.7091 16.7461 13.0812C16.7461 14.3968 16.4078 15.5151 15.7312 16.436C15.0546 17.3382 14.1243 18.0242 12.9402 18.4941C11.7561 18.9451 10.4029 19.1707 8.88053 19.1707C7.64007 19.1707 6.456 19.0391 5.32832 18.776C4.20063 18.4941 3.18571 18.0994 2.28356 17.5919C1.38142 17.0844 0.620227 16.5018 0 15.844L2.33995 12.6019C2.80982 13.1469 3.38306 13.6356 4.05967 14.0679C4.75508 14.4814 5.50687 14.8103 6.31504 15.0546C7.14201 15.2989 7.97838 15.4211 8.82414 15.4211C9.48196 15.4211 10.027 15.3553 10.4593 15.2238C10.9104 15.0922 11.2393 14.8949 11.446 14.6317C11.6528 14.3686 11.7561 14.0585 11.7561 13.7014C11.7561 13.3067 11.6152 12.9778 11.3332 12.7147C11.0513 12.4327 10.5157 12.1978 9.72629 12.0099L6.28685 11.2487C5.23434 11.0043 4.2946 10.6848 3.46764 10.2901C2.65946 9.87665 2.02044 9.3316 1.55057 8.65499C1.0807 7.95959 0.845765 7.09503 0.845765 6.06131C0.845765 4.89604 1.16528 3.86232 1.8043 2.96018C2.44332 2.03923 3.36426 1.31563 4.56713 0.789381C5.76999 0.263127 7.20779 0 8.88053 0Z" fill="#313236"/>
<path d="M24.6267 0.281921V18.8887H19.7777V0.281921H24.6267Z" fill="#313236"/>
<path d="M28.7529 18.8887V0.281921H37.8026C40.0956 0.300716 41.7871 0.742393 42.8772 1.60695C43.9673 2.45272 44.5123 3.68377 44.5123 5.30013C44.5123 6.35263 44.2022 7.26418 43.582 8.03476C42.9618 8.78655 42.0126 9.26582 40.7346 9.47256V9.50076C42.163 9.6887 43.2249 10.1868 43.9203 10.9949C44.6345 11.7843 44.9916 12.7429 44.9916 13.8705C44.9916 15.4681 44.4277 16.7085 43.3001 17.5919C42.1724 18.4565 40.4809 18.8887 38.2255 18.8887H28.7529ZM33.4328 15.4775H37.4079C38.2913 15.4775 38.9491 15.2989 39.3814 14.9418C39.8136 14.5847 40.0298 14.0679 40.0298 13.3913C40.0298 12.7335 39.8136 12.2354 39.3814 11.8971C38.9491 11.54 38.2913 11.3614 37.4079 11.3614H33.4328V15.4775ZM33.4328 7.8938H36.9568C38.686 7.8938 39.5505 7.21719 39.5505 5.86397C39.5505 4.51075 38.686 3.83413 36.9568 3.83413H33.4328V7.8938Z" fill="#313236"/>
<path d="M52.8739 0.281921V18.8887H48.0249V0.281921H52.8739Z" fill="#313236"/>
<path d="M65.8807 0.281921C68.0984 0.281921 69.8182 0.808175 71.0398 1.86068C72.2803 2.89439 72.9005 4.27581 72.9005 6.00493C72.9005 7.9032 72.2897 9.3504 71.068 10.3465C69.8464 11.3426 68.1266 11.8407 65.9088 11.8407L65.4578 12.0944H61.7646V18.8887H57.0001V0.281921H65.8807ZM65.204 8.65499C66.1438 8.65499 66.8486 8.46704 67.3185 8.09115C67.7883 7.71525 68.0233 7.11382 68.0233 6.28685C68.0233 5.47868 67.7883 4.88664 67.3185 4.51074C66.8486 4.13485 66.1438 3.9469 65.204 3.9469H61.7646V8.65499H65.204ZM68.0515 9.66991L74 18.8887H68.6435L63.879 10.7412L68.0515 9.66991Z" fill="#313236"/>
</svg>
