<svg width="280" height="73" viewBox="0 0 280 73" fill="none" xmlns="http://www.w3.org/2000/svg">
<path d="M33.602 0C40.1446 0 45.905 1.02875 50.883 3.08625C55.9322 5.07279 60.3058 8.01714 64.0038 11.9193L55.15 23.7322C52.092 20.5395 48.7851 18.1627 45.2294 16.6019C41.7447 14.9701 37.7622 14.1542 33.282 14.1542C30.6507 14.1542 28.5173 14.438 26.8816 15.0055C25.2459 15.5731 24.0725 16.3536 23.3614 17.3468C22.6502 18.3401 22.2947 19.4753 22.2947 20.7523C22.2947 22.2423 22.9703 23.5193 24.3214 24.5835C25.7438 25.5768 28.0194 26.4282 31.1485 27.1377L42.9892 29.7982C50.0296 31.43 55.1855 33.8068 58.4568 36.9285C61.7281 40.0503 63.3638 44.2007 63.3638 49.3799C63.3638 54.3463 62.0837 58.5677 59.5235 62.0442C56.9634 65.4497 53.4432 68.0393 48.9629 69.813C44.4826 71.5158 39.3623 72.3671 33.602 72.3671C28.9084 72.3671 24.4281 71.8705 20.1612 70.8772C15.8943 69.813 12.0541 68.3231 8.64051 66.4075C5.22698 64.4919 2.34681 62.2925 0 59.8093L8.85386 47.5708C10.6317 49.6283 12.8008 51.4729 15.3609 53.1047C17.9922 54.6656 20.8368 55.9072 23.8948 56.8295C27.0238 57.7518 30.1885 58.213 33.3887 58.213C35.8777 58.213 37.94 57.9647 39.5757 57.468C41.2825 56.9714 42.527 56.2264 43.3092 55.2332C44.0915 54.2399 44.4827 53.0692 44.4827 51.7212C44.4827 50.2313 43.9493 48.9897 42.8826 47.9964C41.8158 46.9322 39.789 46.0454 36.8022 45.3359L23.7881 42.4625C19.8056 41.5402 16.2499 40.334 13.1208 38.8441C10.0628 37.2833 7.6449 35.2258 5.86702 32.6716C4.08913 30.0466 3.20019 26.7829 3.20019 22.8808C3.20019 18.482 4.40915 14.5799 6.82707 11.1743C9.245 7.69788 12.7296 4.96637 17.281 2.97983C21.8324 0.993277 27.2727 0 33.602 0Z" fill="#313236"/>
<path d="M93.1822 1.06422V71.3029H74.8344V1.06422H93.1822Z" fill="#313236"/>
<path d="M108.795 71.3029V1.06422H143.037C151.713 1.13517 158.113 2.80245 162.238 6.06607C166.363 9.25874 168.425 13.9058 168.425 20.0074C168.425 23.9805 167.252 27.4215 164.905 30.3303C162.558 33.1683 158.967 34.9775 154.131 35.7579V35.8643C159.536 36.5738 163.554 38.4539 166.185 41.5047C168.887 44.4845 170.238 48.1029 170.238 52.3598C170.238 58.3904 168.105 63.0729 163.838 66.4075C159.571 69.6711 153.171 71.3029 144.637 71.3029H108.795ZM126.503 58.4258H141.543C144.886 58.4258 147.375 57.7518 149.011 56.4038C150.646 55.0558 151.464 53.1047 151.464 50.5506C151.464 48.0674 150.646 46.1873 149.011 44.9102C147.375 43.5622 144.886 42.8882 141.543 42.8882H126.503V58.4258ZM126.503 29.7982H139.837C146.379 29.7982 149.651 27.2441 149.651 22.1358C149.651 17.0276 146.379 14.4734 139.837 14.4734H126.503V29.7982Z" fill="#313236"/>
<path d="M200.064 1.06422V71.3029H181.716V1.06422H200.064Z" fill="#313236"/>
<path d="M249.278 1.06422C257.67 1.06422 264.177 3.05077 268.799 7.02387C273.493 10.926 275.84 16.1407 275.84 22.6679C275.84 29.8337 273.529 35.2967 268.906 39.057C264.284 42.8172 257.776 44.6974 249.385 44.6974L247.678 45.6552H233.704V71.3029H215.676V1.06422H249.278ZM246.718 32.6716C250.274 32.6716 252.941 31.9622 254.718 30.5432C256.496 29.1242 257.385 26.8539 257.385 23.7322C257.385 20.6814 256.496 18.4465 254.718 17.0276C252.941 15.6086 250.274 14.8991 246.718 14.8991H233.704V32.6716H246.718ZM257.492 36.5028L280 71.3029H259.732L241.704 40.5469L257.492 36.5028Z" fill="#313236"/>
</svg>
