<svg width="220" height="169" viewBox="0 0 220 169" fill="none" xmlns="http://www.w3.org/2000/svg">
<path d="M10.8162 156.986V125.193H0.965726V118.157H28.5888V125.193H18.8946V156.986H10.8162ZM32.016 156.986V128.529H39.8338V156.986H32.016ZM32.016 125.975V118.157H39.8338V125.975H32.016ZM45.5547 156.986V128.529H52.8514V135.46L52.0696 134.314C52.4865 132.125 53.4942 130.509 55.0925 129.467C56.6908 128.424 58.6018 127.903 60.8256 127.903C63.1883 127.903 65.2557 128.511 67.0277 129.727C68.8345 130.909 69.9638 132.507 70.4155 134.522L68.1743 134.731C69.1125 132.403 70.4502 130.683 72.1875 129.571C73.9248 128.459 75.9574 127.903 78.2854 127.903C80.3354 127.903 82.1422 128.355 83.7058 129.258C85.3041 130.162 86.555 131.43 87.4584 133.063C88.3618 134.661 88.8134 136.538 88.8134 138.692V156.986H80.9956V140.36C80.9956 139.248 80.7871 138.292 80.3702 137.493C79.988 136.694 79.432 136.069 78.7024 135.617C77.9727 135.165 77.0867 134.939 76.0443 134.939C75.0367 134.939 74.1506 135.165 73.3862 135.617C72.6566 136.069 72.0833 136.694 71.6663 137.493C71.2841 138.292 71.093 139.248 71.093 140.36V156.986H63.2752V140.36C63.2752 139.248 63.0667 138.292 62.6497 137.493C62.2675 136.694 61.7116 136.069 60.9819 135.617C60.2523 135.165 59.3662 134.939 58.3239 134.939C57.3162 134.939 56.4302 135.165 55.6658 135.617C54.9361 136.069 54.3628 136.694 53.9459 137.493C53.5637 138.292 53.3726 139.248 53.3726 140.36V156.986H45.5547ZM107.665 157.611C104.643 157.611 102.019 156.951 99.7955 155.631C97.5717 154.275 95.8518 152.469 94.6357 150.21C93.4196 147.952 92.8115 145.45 92.8115 142.705C92.8115 139.856 93.437 137.319 94.6878 135.096C95.9734 132.872 97.6933 131.117 99.8476 129.832C102.002 128.546 104.434 127.903 107.144 127.903C109.403 127.903 111.401 128.268 113.138 128.998C114.875 129.693 116.335 130.683 117.516 131.968C118.732 133.254 119.653 134.748 120.278 136.451C120.904 138.119 121.216 139.943 121.216 141.923C121.216 142.479 121.182 143.035 121.112 143.591C121.077 144.112 120.991 144.564 120.852 144.946H99.5349V139.213H116.421L112.721 141.923C113.068 140.429 113.051 139.109 112.669 137.962C112.287 136.781 111.609 135.86 110.636 135.2C109.698 134.505 108.534 134.157 107.144 134.157C105.789 134.157 104.625 134.488 103.652 135.148C102.679 135.808 101.95 136.781 101.463 138.066C100.977 139.352 100.786 140.916 100.89 142.757C100.751 144.355 100.942 145.763 101.463 146.979C101.984 148.195 102.784 149.15 103.861 149.845C104.938 150.505 106.241 150.836 107.77 150.836C109.16 150.836 110.341 150.558 111.314 150.002C112.321 149.446 113.103 148.681 113.659 147.708L119.913 150.679C119.357 152.069 118.471 153.285 117.255 154.328C116.074 155.37 114.667 156.186 113.034 156.777C111.401 157.333 109.611 157.611 107.665 157.611ZM134.223 156.986L123.018 128.529H131.461L139.227 150.054H135.995L143.761 128.529H152.204L140.999 156.986H134.223ZM155.646 156.986V128.529H163.464V156.986H155.646ZM155.646 125.975V118.157H163.464V125.975H155.646ZM182.892 157.298C179.452 157.298 176.777 156.378 174.866 154.536C172.989 152.66 172.051 150.054 172.051 146.718V135.304H167.256V128.529H167.517C168.976 128.529 170.088 128.164 170.852 127.434C171.651 126.704 172.051 125.61 172.051 124.151V122.066H179.869V128.529H186.54V135.304H179.869V146.197C179.869 147.17 180.043 147.986 180.39 148.647C180.738 149.272 181.276 149.741 182.006 150.054C182.735 150.366 183.639 150.523 184.716 150.523C184.959 150.523 185.237 150.505 185.55 150.471C185.863 150.436 186.193 150.401 186.54 150.366V156.986C186.019 157.055 185.428 157.125 184.768 157.194C184.108 157.264 183.483 157.298 182.892 157.298ZM195.551 168.556C194.718 168.556 193.901 168.487 193.102 168.348C192.337 168.209 191.66 167.983 191.069 167.67V161.259C191.556 161.398 192.129 161.52 192.789 161.624C193.449 161.728 194.057 161.781 194.613 161.781C196.142 161.781 197.237 161.416 197.897 160.686C198.557 159.956 199.096 159.122 199.512 158.184L201.441 153.754L201.337 160.269L188.828 128.529H197.219L205.506 151.096H202.379L210.666 128.529H219.057L206.861 159.644C206.097 161.624 205.159 163.275 204.047 164.595C202.935 165.915 201.667 166.906 200.242 167.566C198.852 168.226 197.289 168.556 195.551 168.556Z" fill="#313236"/>
<path d="M130.515 72.8391C132.5 72.8391 134.129 71.2238 133.93 69.2486C132.44 54.4039 121.823 42.8954 108.948 42.8954C96.0735 42.8954 85.4572 54.4039 83.9666 69.2486C83.7683 71.2238 85.3969 72.8391 87.382 72.8391H130.515Z" fill="#313236"/>
<path d="M87.382 0.356088C85.3969 0.356088 83.7683 1.97147 83.9666 3.94667C85.4572 18.7913 96.0735 30.2998 108.948 30.2998C121.823 30.2998 132.44 18.7913 133.93 3.94668C134.129 1.97147 132.5 0.356093 130.515 0.356093L87.382 0.356088Z" fill="#313236"/>
</svg>
