<svg width="106" height="28" viewBox="0 0 106 28" fill="none" xmlns="http://www.w3.org/2000/svg">
<path d="M12.655 0.200012C15.1084 0.200012 17.2686 0.586702 19.1353 1.36008C21.0288 2.10679 22.6689 3.21352 24.0556 4.68028L20.7354 9.12054C19.5887 7.92047 18.3486 7.02709 17.0152 6.44039C15.7085 5.82702 14.215 5.52033 12.5349 5.52033C11.5482 5.52033 10.7482 5.627 10.1348 5.84035C9.52143 6.05369 9.0814 6.34704 8.81472 6.7204C8.54804 7.09376 8.4147 7.52045 8.4147 8.00048C8.4147 8.56051 8.66804 9.04054 9.17474 9.44056C9.70811 9.81392 10.5615 10.1339 11.7349 10.4006L16.1752 11.4007C18.8153 12.014 20.7488 12.9074 21.9755 14.0808C23.2022 15.2542 23.8156 16.8143 23.8156 18.7611C23.8156 20.6279 23.3356 22.2147 22.3755 23.5214C21.4155 24.8015 20.0954 25.7749 18.4153 26.4416C16.7352 27.0816 14.8151 27.4016 12.655 27.4016C10.8948 27.4016 9.21475 27.215 7.61465 26.8416C6.01455 26.4416 4.57447 25.8815 3.29439 25.1615C2.01432 24.4415 0.934252 23.6147 0.0541992 22.6814L3.3744 18.0811C4.0411 18.8545 4.85449 19.5478 5.81454 20.1612C6.80127 20.7479 7.868 21.2146 9.01473 21.5613C10.1881 21.908 11.3749 22.0813 12.5749 22.0813C13.5083 22.0813 14.2817 21.988 14.8951 21.8013C15.5351 21.6146 16.0018 21.3346 16.2952 20.9612C16.5885 20.5879 16.7352 20.1479 16.7352 19.6412C16.7352 19.0811 16.5352 18.6144 16.1352 18.2411C15.7351 17.8411 14.9751 17.5077 13.855 17.241L8.97473 16.161C7.48131 15.8143 6.1479 15.3609 4.97449 14.8009C3.82776 14.2142 2.92104 13.4408 2.25433 12.4807C1.58762 11.494 1.25427 10.2673 1.25427 8.80052C1.25427 7.14709 1.70763 5.68034 2.61435 4.40026C3.52107 3.09352 4.82782 2.06679 6.53458 1.32008C8.24135 0.573369 10.2815 0.200012 12.655 0.200012Z" fill="white"/>
<path d="M34.9975 0.600036V27.0016H28.1171V0.600036H34.9975Z" fill="white"/>
<path d="M40.8523 27.0016V0.600036H53.693C56.9465 0.626704 59.3467 1.25341 60.8934 2.48015C62.4402 3.68022 63.2136 5.42699 63.2136 7.72046C63.2136 9.21388 62.7736 10.5073 61.8935 11.6007C61.0135 12.6674 59.6667 13.3475 57.8533 13.6408V13.6808C59.8801 13.9475 61.3868 14.6542 62.3735 15.8009C63.3869 16.921 63.8936 18.2811 63.8936 19.8812C63.8936 22.148 63.0936 23.9081 61.4935 25.1615C59.8934 26.3882 57.4932 27.0016 54.2931 27.0016H40.8523ZM47.4926 22.1613H53.133C54.3864 22.1613 55.3198 21.908 55.9331 21.4013C56.5465 20.8946 56.8532 20.1612 56.8532 19.2011C56.8532 18.2678 56.5465 17.561 55.9331 17.081C55.3198 16.5743 54.3864 16.321 53.133 16.321H47.4926V22.1613ZM47.4926 11.4007H52.4929C54.9464 11.4007 56.1732 10.4406 56.1732 8.52051C56.1732 6.60039 54.9464 5.64034 52.4929 5.64034H47.4926V11.4007Z" fill="white"/>
<path d="M75.078 0.600036V27.0016H68.1976V0.600036H75.078Z" fill="white"/>
<path d="M93.5335 0.600036C96.6804 0.600036 99.1205 1.34675 100.854 2.84017C102.614 4.30692 103.494 6.26704 103.494 8.72052C103.494 11.414 102.627 13.4675 100.894 14.8809C99.1605 16.2943 96.7204 17.001 93.5735 17.001L92.9335 17.361H87.6932V27.0016H80.9328V0.600036H93.5335ZM92.5735 12.4807C93.9069 12.4807 94.9069 12.2141 95.5736 11.6807C96.2403 11.1473 96.5737 10.2939 96.5737 9.12054C96.5737 7.97381 96.2403 7.13376 95.5736 6.60039C94.9069 6.06703 93.9069 5.80035 92.5735 5.80035H87.6932V12.4807H92.5735ZM96.6137 13.9208L105.054 27.0016H97.4537L90.6933 15.4409L96.6137 13.9208Z" fill="white"/>
</svg>
