<svg width="283" height="329" viewBox="0 0 283 329" fill="none" xmlns="http://www.w3.org/2000/svg">
<g filter="url(#filter0_di_767_3400)">
<rect x="29" y="29" width="225.396" height="225.396" rx="65.6493" fill="#1B1B1B"/>
</g>
<g filter="url(#filter1_i_767_3400)">
<path d="M112.138 86.2994H171.129C173.23 86.2994 174.981 86.0835 176.382 85.6515C177.836 85.1656 179.102 84.7336 180.18 84.3556C181.311 83.9237 182.415 83.7077 183.493 83.7077C185.324 83.7077 186.698 84.1667 187.614 85.0846C188.584 85.9485 189.338 87.4873 189.877 89.7011L195.129 117.643C195.453 119.209 195.345 120.478 194.806 121.45C194.267 122.422 193.325 123.043 191.978 123.313C190.739 123.583 189.634 123.502 188.665 123.07C187.749 122.584 186.941 121.666 186.24 120.316C183.062 113.459 180.287 108.221 177.917 104.604C175.547 100.932 173.284 98.4212 171.129 97.0714C168.974 95.7215 166.577 95.0466 163.937 95.0466H157.068V186C157.068 187.188 157.391 188.133 158.038 188.835C158.738 189.537 159.735 190.104 161.028 190.536L165.149 191.589C167.358 192.345 168.462 193.749 168.462 195.8C168.462 198.392 166.792 199.688 163.452 199.688H119.815C118.145 199.688 116.906 199.337 116.098 198.635C115.29 197.933 114.886 196.988 114.886 195.8C114.886 193.749 115.99 192.345 118.199 191.589L122.32 190.536C123.667 190.104 124.664 189.537 125.31 188.835C125.957 188.133 126.28 187.188 126.28 186V95.0466H119.411C116.825 95.0466 114.455 95.7485 112.3 97.1524C110.145 98.5562 107.855 101.067 105.431 104.685C103.061 108.302 100.259 113.513 97.0269 120.316C96.3804 121.666 95.5723 122.584 94.6026 123.07C93.6868 123.502 92.6093 123.583 91.3702 123.313C90.0773 123.043 89.1614 122.422 88.6227 121.45C88.084 120.478 87.9493 119.209 88.2187 117.643L93.4713 89.7011C94.01 87.4873 94.7373 85.9485 95.6531 85.0846C96.6228 84.1667 97.9966 83.7077 99.7744 83.7077C100.906 83.7077 102.01 83.9237 103.088 84.3556C104.219 84.7336 105.485 85.1656 106.886 85.6515C108.34 86.0835 110.091 86.2994 112.138 86.2994Z" fill="#687076"/>
</g>
<path d="M58.8034 318V289.66H49.8234V285H73.0234V289.66H64.0234V318H58.8034ZM78.1447 318V297.52H83.1247V318H78.1447ZM80.6447 293.32C80.098 293.32 79.5914 293.187 79.1247 292.92C78.6714 292.64 78.3047 292.273 78.0247 291.82C77.758 291.353 77.6247 290.84 77.6247 290.28C77.6247 289.733 77.758 289.233 78.0247 288.78C78.3047 288.327 78.6714 287.967 79.1247 287.7C79.5914 287.42 80.098 287.28 80.6447 287.28C81.2047 287.28 81.7047 287.42 82.1447 287.7C82.598 287.967 82.958 288.327 83.2247 288.78C83.5047 289.233 83.6447 289.733 83.6447 290.28C83.6447 290.84 83.5047 291.353 83.2247 291.82C82.958 292.273 82.598 292.64 82.1447 292.92C81.7047 293.187 81.2047 293.32 80.6447 293.32ZM90.86 318V297.52H95.84V299.98C96.7867 298.927 97.78 298.147 98.82 297.64C99.8733 297.133 101.027 296.88 102.28 296.88C103.893 296.88 105.327 297.247 106.58 297.98C107.847 298.713 108.74 299.7 109.26 300.94C110.18 299.633 111.227 298.633 112.4 297.94C113.573 297.233 114.933 296.88 116.48 296.88C117.947 296.88 119.247 297.187 120.38 297.8C121.527 298.4 122.427 299.267 123.08 300.4C123.747 301.52 124.08 302.873 124.08 304.46V318H119.1V305.82C119.1 304.3 118.7 303.1 117.9 302.22C117.113 301.327 116.053 300.88 114.72 300.88C113.813 300.88 113 301.073 112.28 301.46C111.56 301.847 110.993 302.36 110.58 303C110.167 303.64 109.96 304.327 109.96 305.06V318H104.98V305.62C104.98 304.18 104.593 303.033 103.82 302.18C103.047 301.313 101.993 300.88 100.66 300.88C99.74 300.88 98.9133 301.073 98.18 301.46C97.46 301.847 96.8867 302.36 96.46 303C96.0467 303.627 95.84 304.307 95.84 305.04V318H90.86ZM141.206 318.64C139.019 318.64 137.059 318.167 135.326 317.22C133.606 316.273 132.239 314.98 131.226 313.34C130.226 311.7 129.726 309.853 129.726 307.8C129.726 306.28 130.013 304.86 130.586 303.54C131.159 302.22 131.953 301.06 132.966 300.06C133.979 299.06 135.159 298.28 136.506 297.72C137.853 297.16 139.306 296.88 140.866 296.88C142.999 296.88 144.866 297.32 146.466 298.2C148.079 299.08 149.333 300.307 150.226 301.88C151.133 303.453 151.586 305.287 151.586 307.38C151.586 307.553 151.579 307.7 151.566 307.82C151.553 307.927 151.526 308.113 151.486 308.38H134.806C134.806 309.62 135.086 310.713 135.646 311.66C136.206 312.593 136.986 313.327 137.986 313.86C138.999 314.38 140.159 314.64 141.466 314.64C142.706 314.64 143.806 314.393 144.766 313.9C145.739 313.393 146.619 312.627 147.406 311.6L151.026 313.46C150.053 315.087 148.699 316.36 146.966 317.28C145.246 318.187 143.326 318.64 141.206 318.64ZM135.026 305.26H146.646C146.473 304.327 146.119 303.52 145.586 302.84C145.053 302.16 144.379 301.633 143.566 301.26C142.753 300.873 141.846 300.68 140.846 300.68C139.793 300.68 138.853 300.867 138.026 301.24C137.199 301.613 136.526 302.14 136.006 302.82C135.486 303.5 135.159 304.313 135.026 305.26ZM164.323 318L153.843 297.52H159.723L165.983 311.3L172.243 297.52H178.123L167.643 318H164.323ZM182.246 318V297.52H187.226V318H182.246ZM184.746 293.32C184.2 293.32 183.693 293.187 183.226 292.92C182.773 292.64 182.406 292.273 182.126 291.82C181.86 291.353 181.726 290.84 181.726 290.28C181.726 289.733 181.86 289.233 182.126 288.78C182.406 288.327 182.773 287.967 183.226 287.7C183.693 287.42 184.2 287.28 184.746 287.28C185.306 287.28 185.806 287.42 186.246 287.7C186.7 287.967 187.06 288.327 187.326 288.78C187.606 289.233 187.746 289.733 187.746 290.28C187.746 290.84 187.606 291.353 187.326 291.82C187.06 292.273 186.7 292.64 186.246 292.92C185.806 293.187 185.306 293.32 184.746 293.32ZM201.322 318.64C199.468 318.64 198.022 318.04 196.982 316.84C195.955 315.64 195.442 313.953 195.442 311.78V301.3H192.942V297.52H195.442V289.86H200.422V297.52H205.142V301.3H200.422V311.44C200.422 312.333 200.602 313.02 200.962 313.5C201.322 313.967 201.835 314.2 202.502 314.2C203.195 314.2 203.828 313.987 204.402 313.56L205.662 317.54C205.062 317.887 204.375 318.153 203.602 318.34C202.828 318.54 202.068 318.64 201.322 318.64ZM211.428 328.4L217.488 316.18L207.748 297.52H213.428L220.368 311.32L226.508 297.52H232.188L217.108 328.4H211.428Z" fill="white"/>
<defs>
<filter id="filter0_di_767_3400" x="0.551983" y="0.551983" width="282.292" height="282.292" filterUnits="userSpaceOnUse" color-interpolation-filters="sRGB">
<feFlood flood-opacity="0" result="BackgroundImageFix"/>
<feColorMatrix in="SourceAlpha" type="matrix" values="0 0 0 0 0 0 0 0 0 0 0 0 0 0 0 0 0 0 127 0" result="hardAlpha"/>
<feOffset/>
<feGaussianBlur stdDeviation="14.224"/>
<feComposite in2="hardAlpha" operator="out"/>
<feColorMatrix type="matrix" values="0 0 0 0 0 0 0 0 0 0 0 0 0 0 0 0 0 0 0.05 0"/>
<feBlend mode="normal" in2="BackgroundImageFix" result="effect1_dropShadow_767_3400"/>
<feBlend mode="normal" in="SourceGraphic" in2="effect1_dropShadow_767_3400" result="shape"/>
<feColorMatrix in="SourceAlpha" type="matrix" values="0 0 0 0 0 0 0 0 0 0 0 0 0 0 0 0 0 0 127 0" result="hardAlpha"/>
<feOffset/>
<feGaussianBlur stdDeviation="32.8246"/>
<feComposite in2="hardAlpha" operator="arithmetic" k2="-1" k3="1"/>
<feColorMatrix type="matrix" values="0 0 0 0 0.349713 0 0 0 0 0.351187 0 0 0 0 0.354134 0 0 0 0.25 0"/>
<feBlend mode="normal" in2="shape" result="effect2_innerShadow_767_3400"/>
</filter>
<filter id="filter1_i_767_3400" x="88.084" y="83.7077" width="107.227" height="115.98" filterUnits="userSpaceOnUse" color-interpolation-filters="sRGB">
<feFlood flood-opacity="0" result="BackgroundImageFix"/>
<feBlend mode="normal" in="SourceGraphic" in2="BackgroundImageFix" result="shape"/>
<feColorMatrix in="SourceAlpha" type="matrix" values="0 0 0 0 0 0 0 0 0 0 0 0 0 0 0 0 0 0 127 0" result="hardAlpha"/>
<feOffset/>
<feGaussianBlur stdDeviation="3.28246"/>
<feComposite in2="hardAlpha" operator="arithmetic" k2="-1" k3="1"/>
<feColorMatrix type="matrix" values="0 0 0 0 0.0143338 0 0 0 0 0.0420821 0 0 0 0 0.0458659 0 0 0 0.4 0"/>
<feBlend mode="normal" in2="shape" result="effect1_innerShadow_767_3400"/>
</filter>
</defs>
</svg>
